<?xml version="1.0" encoding="UTF-8"?>
<svg width="14px" height="13px" viewBox="0 0 14 13" version="1.1" xmlns="http://www.w3.org/2000/svg" xmlns:xlink="http://www.w3.org/1999/xlink">
   <path d="M4.53603125,1.76143681 C3.80615625,1.99511411 3.15625,2.32538308 2.60434375,2.74313184 C1.56975,3.5261997 1,4.53325077 1,5.57878712 C1,6.16535296 1.1748125,6.73418995 1.5195625,7.26946147 C1.8750625,7.82141384 2.40990625,8.32600194 3.06625,8.7287001 C3.5405625,9.01969777 3.77989262,9.47177571 3.86420512,9.99499511 C3.89233012,10.1694307 3.58180906,10.7405387 3.58871531,10.9157312 C3.70543406,10.8255731 4.227125,10.346887 4.33853125,10.2431049 C4.7159375,9.89155544 5.22571875,9.69741144 5.752625,9.69741144 C5.8365,9.69741144 5.92078125,9.70230215 6.0050625,9.71231648 C6.33278125,9.75112199 6.66753125,9.77083042 7,9.77083042 C7.85834375,9.77083042 8.6873125,9.64477801 9.46396875,9.39613744 C10.1938437,9.16246013 10.84375,8.83219117 11.3956562,8.41444241 C12.43025,7.63140366 13,6.62432348 13,5.57878712 C13,4.53325077 12.43025,3.5261997 11.3956562,2.74313184 C10.84375,2.32541219 10.1938437,1.99511411 9.46396875,1.76143681 C8.6873125,1.51282535 7.85834375,1.38674383 7,1.38674383 C6.1416875,1.38674383 5.3126875,1.51282535 4.53603125,1.76143681 Z M7,0.47203125 L7,0.47203125 C10.8659961,0.47203125 14,2.80124322 14,5.67445905 C14,8.54767488 10.8659961,10.8768868 7,10.8768868 C6.62872656,10.8768868 6.26431641,10.8552017 5.90865625,10.8138074 C4.40505078,12.1891743 2.61031641,12.4358143 0.875,12.4720313 L0.875,12.1354242 C1.81201562,11.7155032 2.625,10.9506213 2.625,10.0765133 C2.625,9.95453142 2.61463672,9.83477553 2.59541406,9.71764587 C1.01226563,8.76390079 0,7.30709595 0,5.67445905 C0,2.80124322 3.13400391,0.47203125 7,0.47203125 L7,0.47203125 Z" id="comments"></path>
</svg>
