<?xml version="1.0" encoding="UTF-8"?>
<svg width="27px" height="17px" viewBox="0 0 27 17" version="1.1" xmlns="http://www.w3.org/2000/svg" xmlns:xlink="http://www.w3.org/1999/xlink">
	<path d="M8.49478528,7.28496933 L8.49478528,10.2 L13.3131902,10.2 C13.1202454,11.4515337 11.8582822,13.8659509 8.49478528,13.8659509 C5.59539877,13.8659509 3.22791411,11.4619632 3.22791411,8.5 C3.22791411,5.53803681 5.59539877,3.13404908 8.49478528,3.13404908 C10.1478528,3.13404908 11.2481595,3.83803681 11.8791411,4.44294479 L14.1840491,2.22147239 C12.7030675,0.839570552 10.7840491,-1.48211368e-15 8.49478528,-1.48211368e-15 C3.79631902,0.00521472393 0,3.80153374 0,8.5 C0,13.1984663 3.79631902,16.9947853 8.49478528,16.9947853 C13.3966258,16.9947853 16.6506135,13.5478528 16.6506135,8.69294479 C16.6506135,8.13496933 16.5880368,7.70736196 16.5150307,7.28496933 L8.49478528,7.28496933 L8.49478528,7.28496933 Z" id="Shape"></path>
	<polygon id="Shape" points="26.6993865 7.0398773 24.196319 7.0398773 24.196319 4.53680982 21.6932515 4.53680982 21.6932515 7.0398773 19.190184 7.0398773 19.190184 9.54294479 21.6932515 9.54294479 21.6932515 12.0460123 24.196319 12.0460123 24.196319 9.54294479 26.6993865 9.54294479"></polygon>
</svg>
