<?xml version="1.0" encoding="UTF-8"?>
<svg width="17px" height="17px" viewBox="0 0 17 17" version="1.1" xmlns="http://www.w3.org/2000/svg" xmlns:xlink="http://www.w3.org/1999/xlink">
    <path d="M8.5,1.53066406 C10.7710938,1.53066406 11.0400391,1.540625 11.9332031,1.58046875 C12.7632812,1.61699219 13.2115234,1.75644531 13.5103516,1.87265625 C13.9054688,2.02539062 14.1910156,2.21132813 14.4865234,2.50683594 C14.7853516,2.80566406 14.9679688,3.08789062 15.1240234,3.48300781 C15.2402344,3.78183594 15.3796875,4.23339844 15.4162109,5.06015625 C15.4560547,5.95664062 15.4660156,6.22558594 15.4660156,8.49335937 C15.4660156,10.7611328 15.4560547,11.0333984 15.4162109,11.9265625 C15.3796875,12.7566406 15.2402344,13.2048828 15.1240234,13.5037109 C14.9712891,13.8988281 14.7853516,14.184375 14.4898437,14.4798828 C14.1910156,14.7787109 13.9087891,14.9613281 13.5136719,15.1173828 C13.2148438,15.2335937 12.7632812,15.3730469 11.9365234,15.4095703 C11.0400391,15.4494141 10.7710937,15.459375 8.50332031,15.459375 C6.23554687,15.459375 5.96328125,15.4494141 5.07011719,15.4095703 C4.24003906,15.3730469 3.79179687,15.2335937 3.49296875,15.1173828 C3.09785156,14.9646484 2.81230469,14.7787109 2.51679687,14.4832031 C2.21796875,14.184375 2.03535156,13.9021484 1.87929687,13.5070312 C1.76308594,13.2082031 1.62363281,12.7566406 1.58710937,11.9298828 C1.54726562,11.0333984 1.53730469,10.7644531 1.53730469,8.49667969 C1.53730469,6.22890625 1.54726562,5.95664062 1.58710937,5.06347656 C1.62363281,4.23339844 1.76308594,3.78515625 1.87929687,3.48632812 C2.03203125,3.09121094 2.21796875,2.80566406 2.51347656,2.51015625 C2.81230469,2.21132812 3.09453125,2.02871094 3.48964844,1.87265625 C3.78847656,1.75644531 4.24003906,1.61699219 5.06679687,1.58046875 C5.95996094,1.540625 6.22890625,1.53066406 8.5,1.53066406 L8.5,1.53066406 Z M8.5,-1.97215226e-31 C6.19238281,-1.97215226e-31 5.90351562,0.0099609375 4.99707031,0.0498046875 C4.09394531,0.0896484375 3.47304688,0.235742187 2.93515625,0.444921875 C2.37402344,0.6640625 1.89921875,0.952929687 1.42773438,1.42773438 C0.952929688,1.89921875 0.6640625,2.37402344 0.444921875,2.93183594 C0.235742188,3.47304687 0.0896484375,4.090625 0.0498046875,4.99375 C0.0099609375,5.90351562 1.76941795e-16,6.19238281 1.76941795e-16,8.5 C1.76941795e-16,10.8076172 0.0099609375,11.0964844 0.0498046875,12.0029297 C0.0896484375,12.9060547 0.235742188,13.5269531 0.444921875,14.0648437 C0.6640625,14.6259766 0.952929688,15.1007812 1.42773438,15.5722656 C1.89921875,16.04375 2.37402344,16.3359375 2.93183594,16.5517578 C3.47304688,16.7609375 4.090625,16.9070312 4.99375,16.946875 C5.90019531,16.9867187 6.1890625,16.9966797 8.49667969,16.9966797 C10.8042969,16.9966797 11.0931641,16.9867187 11.9996094,16.946875 C12.9027344,16.9070312 13.5236328,16.7609375 14.0615234,16.5517578 C14.6193359,16.3359375 15.0941406,16.04375 15.565625,15.5722656 C16.0371094,15.1007812 16.3292969,14.6259766 16.5451172,14.0681641 C16.7542969,13.5269531 16.9003906,12.909375 16.9402344,12.00625 C16.9800781,11.0998047 16.9900391,10.8109375 16.9900391,8.50332031 C16.9900391,6.19570312 16.9800781,5.90683594 16.9402344,5.00039062 C16.9003906,4.09726562 16.7542969,3.47636719 16.5451172,2.93847656 C16.3359375,2.37402344 16.0470703,1.89921875 15.5722656,1.42773437 C15.1007813,0.95625 14.6259766,0.6640625 14.0681641,0.448242187 C13.5269531,0.2390625 12.909375,0.09296875 12.00625,0.053125 C11.0964844,0.0099609375 10.8076172,-9.5843472e-16 8.5,-9.5843472e-16 L8.5,-9.5843472e-16 L8.5,-1.97215226e-31 Z" id="Shape"></path>
    <path d="M8.5,4.13378906 C6.08945313,4.13378906 4.13378906,6.08945313 4.13378906,8.5 C4.13378906,10.9105469 6.08945313,12.8662109 8.5,12.8662109 C10.9105469,12.8662109 12.8662109,10.9105469 12.8662109,8.5 C12.8662109,6.08945313 10.9105469,4.13378906 8.5,4.13378906 L8.5,4.13378906 Z M8.5,11.3322266 C6.93613281,11.3322266 5.66777344,10.0638672 5.66777344,8.5 C5.66777344,6.93613281 6.93613281,5.66777344 8.5,5.66777344 C10.0638672,5.66777344 11.3322266,6.93613281 11.3322266,8.5 C11.3322266,10.0638672 10.0638672,11.3322266 8.5,11.3322266 L8.5,11.3322266 Z" id="Shape"></path>
    <path d="M14.0582031,3.96113281 C14.0582031,4.5240918 13.6018262,4.98046875 13.0388672,4.98046875 C12.4759082,4.98046875 12.0195312,4.5240918 12.0195312,3.96113281 C12.0195312,3.39817383 12.4759082,2.94179687 13.0388672,2.94179687 C13.6018262,2.94179687 14.0582031,3.39817383 14.0582031,3.96113281 L14.0582031,3.96113281 Z" id="Shape"></path>
</svg>
