<?xml version="1.0" encoding="UTF-8"?>
<svg width="17px" height="17px" viewBox="0 0 143 184" version="1.1" xmlns="http://www.w3.org/2000/svg" xmlns:xlink="http://www.w3.org/1999/xlink">
  <path fill="#fff" d="M34.734,9.053 C19.12,18.067 7.95,32.624 3.284,50.039 C-1.383,67.454 1.013,85.645 10.027,101.259 C22.05,122.082 44.468,135.018 68.535,135.018 C76.134,135.018 83.674,133.71 90.822,131.2 L121.186,183.792 L142.836,171.292 L112.477,118.709 C122.732,109.935 130.115,98.298 133.684,84.979 C138.35,67.564 135.954,49.374 126.94,33.759 C114.918,12.936 92.499,0 68.433,0 C56.645,0 44.992,3.13 34.734,9.053 L34.734,9.053 Z M105.29,46.259 C110.966,56.09 112.474,67.544 109.536,78.509 C106.598,89.474 99.565,98.639 89.734,104.315 C83.272,108.046 75.941,110.018 68.535,110.018 C53.372,110.018 39.249,101.872 31.678,88.759 C26.002,78.928 24.494,67.475 27.433,56.509 C30.371,45.544 37.404,36.379 47.235,30.702 C53.696,26.972 61.027,25 68.433,25 C83.597,25 97.719,33.146 105.29,46.259 L105.29,46.259 Z" id="search"></path>
</svg>
