<?xml version="1.0" encoding="UTF-8"?>
<svg width="20px" height="17px" viewBox="0 0 20 17" version="1.1" xmlns="http://www.w3.org/2000/svg" xmlns:xlink="http://www.w3.org/1999/xlink">
   <path d="M17.5449912,2.5659051 C18.3924819,2.05819176 19.0407928,1.25366139 19.3493263,0.296817028 C18.5565124,0.765475493 17.6777778,1.10915837 16.7443663,1.29271627 C15.9945128,0.495996876 14.9283148,-7.10542736e-15 13.7488576,-7.10542736e-15 C11.4836751,-7.10542736e-15 9.64809607,1.83557899 9.64809607,4.10076157 C9.64809607,4.42101152 9.68324546,4.7334505 9.75354423,5.03417301 C6.3440539,4.86233158 3.3212068,3.22983792 1.29816442,0.745948057 C0.946670572,1.35129857 0.743585237,2.05819176 0.743585237,2.8080453 C0.743585237,4.22964265 1.46610037,5.48720953 2.56744776,6.22144112 C1.89570396,6.20191369 1.26301504,6.0144503 0.708435852,5.7098223 L0.708435852,5.76059363 C0.708435852,7.74848662 2.12222222,9.40831869 4.00076157,9.78324546 C3.6570787,9.87697715 3.29386839,9.92774849 2.91894161,9.92774849 C2.65336848,9.92774849 2.39951181,9.90041008 2.14565515,9.85354423 C2.66899043,11.4821324 4.18431947,12.6694005 5.9769381,12.7045499 C4.5709627,13.8058973 2.80568248,14.4620191 0.88027729,14.4620191 C0.548310877,14.4620191 0.224155438,14.4424917 -0.1,14.4034368 C1.71995704,15.5711775 3.87578598,16.2468268 6.19173989,16.2468268 C13.7371412,16.2468268 17.8652412,9.99414177 17.8652412,4.57332552 C17.8652412,4.39367311 17.8613357,4.21792619 17.8535247,4.04217926 C18.6541496,3.46807264 19.3493263,2.74555751 19.9,1.92149971 C19.1657684,2.24956063 18.3729545,2.46826792 17.5449912,2.5659051 Z" id="twitter"></path>
</svg>
