<?xml version="1.0" encoding="UTF-8"?>
<svg width="31px" height="18px" viewBox="0 0 31 18" version="1.1" xmlns="http://www.w3.org/2000/svg" xmlns:xlink="http://www.w3.org/1999/xlink">
  <path d="M28.6881235,17.3797811 L24.7067647,17.4393313 C24.7067647,17.4393313 23.8475399,17.6094748 22.7245925,16.8353217 C21.2358366,15.8144605 19.8321524,13.1517141 18.7347266,13.5005084 C17.6287936,13.8493026 17.6628223,16.2398194 17.6628223,16.2398194 C17.6628223,16.2398194 17.6713294,16.75025 17.4161141,17.0224796 C17.1438845,17.3202308 16.5994252,17.3797811 16.5994252,17.3797811 L14.8214252,17.3797811 C14.8214252,17.3797811 10.8911095,17.617982 7.42868848,14.010939 C3.65150195,10.0806233 0.31668861,2.2795421 0.31668861,2.2795421 C0.31668861,2.2795421 0.121023542,1.76911148 0.333702964,1.52240335 C0.571903917,1.24166652 1.20994218,1.22465216 1.20994218,1.22465216 L5.4720378,1.19913063 C5.4720378,1.19913063 5.87187511,1.26718805 6.16111913,1.47986747 C6.39932008,1.65001101 6.52692773,1.98179091 6.52692773,1.98179091 C6.52692773,1.98179091 7.21600906,3.72576217 8.12627698,5.29958989 C9.90427695,8.37068074 10.7379803,9.04274771 11.3419898,8.71947499 C12.2182291,8.24307309 11.9545066,4.37230761 11.9545066,4.37230761 C11.9545066,4.37230761 11.9715209,2.96862342 11.5121334,2.34759951 C11.154832,1.86269043 10.482765,1.71806842 10.193521,1.68403971 C9.95532001,1.65001101 10.3466501,1.09704451 10.8570808,0.841829204 C11.6227267,0.467513421 12.9753678,0.441991891 14.5747171,0.459006244 C15.8167649,0.467513421 16.1825735,0.55258519 16.6674826,0.663178489 C18.1392242,1.02047992 17.6373007,2.3901354 17.6373007,5.67390567 C17.6373007,6.7287956 17.4501428,8.20904438 18.2072816,8.69395346 C18.5305543,8.90663288 19.3302289,8.72798217 21.3294155,5.3336186 C22.2737121,3.72576217 22.988315,1.8371689 22.988315,1.8371689 C22.988315,1.8371689 23.1414442,1.49688182 23.3796451,1.35225982 C23.6263533,1.20763781 23.9581332,1.25017369 23.9581332,1.25017369 L28.4414154,1.22465216 C28.4414154,1.22465216 29.7855493,1.0630158 30.0067359,1.67553254 C30.2364297,2.3135708 29.5048125,3.80232676 27.6757694,6.24388652 C24.672736,10.2507668 24.3324489,9.87645105 26.8335589,12.1904032 C29.2155685,14.4022691 29.7089847,15.4826806 29.7940565,15.6187954 C30.7638747,17.2521734 28.6881235,17.3797811 28.6881235,17.3797811 L28.6881235,17.3797811 Z" id="vk"></path>
</svg>
