<?xml version="1.0" encoding="UTF-8"?>
<svg width="25px" height="18px" viewBox="0 0 25 18" version="1.1" xmlns="http://www.w3.org/2000/svg" xmlns:xlink="http://www.w3.org/1999/xlink">
  <path d="M24.0255762,4.56814774 C24.0255762,4.56814774 23.7895307,2.9016662 23.0625104,2.16992502 C22.1419328,1.20685921 21.1127742,1.20213829 20.6406831,1.14548736 C17.260511,0.9 12.1855318,0.9 12.1855318,0.9 L12.17609,0.9 C12.17609,0.9 7.1011108,0.9 3.72093863,1.14548736 C3.24884754,1.20213829 2.21968898,1.20685921 1.29911136,2.16992502 C0.572091086,2.9016662 0.340766454,4.56814774 0.340766454,4.56814774 C0.340766454,4.56814774 0.1,6.52260483 0.1,8.48178284 L0.1,10.3134963 C0.1,12.2679533 0.340766454,14.2271314 0.340766454,14.2271314 C0.340766454,14.2271314 0.576811997,15.8936129 1.29911136,16.6253541 C2.21968898,17.5884199 3.42824215,17.5553735 3.96642599,17.6592335 C5.90199944,17.8433491 12.1855318,17.9 12.1855318,17.9 C12.1855318,17.9 17.2652319,17.8905582 20.6454041,17.6497917 C21.1174951,17.5931408 22.1466537,17.5884199 23.0672313,16.6253541 C23.7942516,15.8936129 24.0302971,14.2271314 24.0302971,14.2271314 C24.0302971,14.2271314 24.2710636,12.2726743 24.2710636,10.3134963 L24.2710636,8.48178284 C24.2663427,6.52732574 24.0255762,4.56814774 24.0255762,4.56814774 L24.0255762,4.56814774 Z M9.68344904,12.5370453 L9.68344904,5.74365454 L16.2124688,9.15215218 L9.68344904,12.5370453 L9.68344904,12.5370453 Z" id="yt"></path>
</svg>
